<svg width="136" height="65" viewBox="0 0 136 65" fill="none" xmlns="http://www.w3.org/2000/svg">
<path d="M22.1172 29.774C8.58856 53.2063 5.06891 59.3025 5.00017 59.4215" stroke="#2AA4F4" stroke-width="4" stroke-linecap="round" stroke-linejoin="round"/>
<path d="M94.7031 29.774C81.1745 53.2063 77.6548 59.3025 77.5861 59.4215" stroke="#2AA4F4" stroke-width="4" stroke-linecap="round" stroke-linejoin="round"/>
<path d="M130.996 29.774C117.467 53.2063 113.948 59.3025 113.879 59.4215" stroke="#2AA4F4" stroke-width="4" stroke-linecap="round" stroke-linejoin="round"/>
<path d="M58.416 29.774C44.8874 53.2063 41.3677 59.3025 41.299 59.4215" stroke="#2AA4F4" stroke-width="4" stroke-linecap="round" stroke-linejoin="round"/>
<path d="M22.5156 29.7476C37.05 52.5697 40.8313 58.5071 40.9051 58.6231" stroke="#2AA4F4" stroke-width="4" stroke-linecap="round" stroke-linejoin="round"/>
<path d="M58.8086 29.7476C73.3429 52.5697 77.1242 58.5071 77.1981 58.6231" stroke="#2AA4F4" stroke-width="4" stroke-linecap="round" stroke-linejoin="round"/>
<path d="M95.1074 29.7476C109.642 52.5697 113.423 58.5071 113.497 58.6231" stroke="#2AA4F4" stroke-width="4" stroke-linecap="round" stroke-linejoin="round"/>
<path d="M22.1172 5.02643C8.58856 28.4587 5.06891 34.5549 5.00017 34.674" stroke="#2AA4F4" stroke-width="4" stroke-linecap="round" stroke-linejoin="round"/>
<path d="M94.7031 5.02643C81.1745 28.4587 77.6548 34.5549 77.5861 34.674" stroke="#2AA4F4" stroke-width="4" stroke-linecap="round" stroke-linejoin="round"/>
<path d="M130.996 5.02643C117.467 28.4587 113.948 34.5549 113.879 34.674" stroke="#2AA4F4" stroke-width="4" stroke-linecap="round" stroke-linejoin="round"/>
<path d="M58.416 5.02643C44.8874 28.4587 41.3677 34.5549 41.299 34.674" stroke="#2AA4F4" stroke-width="4" stroke-linecap="round" stroke-linejoin="round"/>
<path d="M22.5156 5C37.05 27.8221 40.8313 33.7596 40.9051 33.8755" stroke="#2AA4F4" stroke-width="4" stroke-linecap="round" stroke-linejoin="round"/>
<path d="M58.8086 5C73.3429 27.8221 77.1242 33.7596 77.1981 33.8755" stroke="#2AA4F4" stroke-width="4" stroke-linecap="round" stroke-linejoin="round"/>
<path d="M95.1074 5C109.642 27.8221 113.423 33.7596 113.497 33.8755" stroke="#2AA4F4" stroke-width="4" stroke-linecap="round" stroke-linejoin="round"/>
</svg>
